<svg xmlns="http://www.w3.org/2000/svg" xmlns:xlink="http://www.w3.org/1999/xlink" width="65" height="43" viewBox="0 0 65 43">
    <defs>
        <path id="a" d="M0 .613h49.62V42.16H0z"/>
    </defs>
    <g fill="none" fill-rule="evenodd">
        <g>
            <mask id="b" fill="#fff">
                <use xlink:href="#a"/>
            </mask>
            <path fill="#FFF" d="M15.88 34.634V8.137L39.3 21.19 15.88 34.634zM42.477.626H7.148C3.437.388.237 3.194.004 6.89c0 .02-.006.046-.006.066v28.867c.2 3.695 3.368 6.531 7.077 6.328.025 0 .046-.005.071-.005h35.331c3.704.239 6.903-2.562 7.138-6.257 0-.02.005-.046.005-.066V6.955c-.199-3.7-3.368-6.532-7.082-6.334-.02 0-.04.005-.06.005z" mask="url(#b)"/>
        </g>
        <path fill="#FFF" d="M60.778 8.492l-8.075 6.786v13.167l8.075 6.386c1.539.794 4.222 0 4.222-1.997V10.489c-.064-1.495-1.283-2.647-2.723-2.58-.547.025-1.07.23-1.5.583"/>
    </g>
</svg>
