<svg xmlns="http://www.w3.org/2000/svg" width="76" height="80" viewBox="0 0 76 80">
    <path fill="#FFF" fill-rule="nonzero" d="M1.699 51.616a7.337 7.337 0 0 0 10.336.95 7.334 7.334 0 0 0 .949-10.334 7.332 7.332 0 0 0-3.888-2.435 32.363 32.363 0 0 1 9.137-23.885 32.574 32.574 0 0 1 13.304-8.277l.672 3.087 8.117-7.38L29.875 0l.672 3.088A37.175 37.175 0 0 0 14.91 12.68C7.766 20.026 4.024 29.962 4.467 40.17c-.66.28-1.272.656-1.818 1.112a7.331 7.331 0 0 0-.95 10.334zM25.912 69.65L50.922 80l14.622-7.368 10.278-24.837-1.229-2.853-5.843-2.417-2.883 1.15 2.371-5.733-1.229-2.852-5.843-2.42-2.888 1.15 2.3-5.562-1.225-2.852-5.846-2.42-2.883 1.152 6.989-16.895-1.23-2.853-5.844-2.417-2.883 1.149-15.519 37.5-.44-8.71-2.26-2.173-6.301.011-2.17 2.178-.406 16.162 5.352 21.56z" opacity=".5"/>
</svg>
