<svg xmlns="http://www.w3.org/2000/svg" xmlns:xlink="http://www.w3.org/1999/xlink" width="60" height="60" viewBox="0 0 60 60">
    <defs>
        <path id="a" d="M0 0h60v60H0z"/>
    </defs>
    <g fill="none" fill-rule="evenodd">
        <mask id="b" fill="#fff">
            <use xlink:href="#a"/>
        </mask>
        <path fill="#FFF" d="M53.185 8.41a.928.928 0 0 1-.667.271.931.931 0 0 1-.937-.937c0-.244.103-.488.272-.656a.958.958 0 0 1 1.022-.207.862.862 0 0 1 .31.207.945.945 0 0 1 0 1.321zm0 5.624a.928.928 0 0 1-.667.272.924.924 0 0 1-.862-1.293.934.934 0 0 1 1.05-.563c.057.019.112.038.17.056l.168.085c.046.037.093.075.14.122.085.084.15.187.198.3a.932.932 0 0 1-.197 1.021zm.197 5.325a.942.942 0 0 1-.197.3c-.095.085-.198.16-.31.207a.926.926 0 0 1-.357.065.931.931 0 0 1-.665-.272.942.942 0 0 1-.197-.3.944.944 0 0 1-.075-.365c0-.244.103-.478.272-.656.357-.357.985-.347 1.332 0 .169.168.27.412.27.656a.943.943 0 0 1-.073.365zm0 5.625a.942.942 0 0 1-.197.3c-.095.085-.198.16-.31.207a.926.926 0 0 1-.357.065.924.924 0 0 1-.356-.065 1.004 1.004 0 0 1-.31-.207.942.942 0 0 1-.196-.3.812.812 0 0 1-.075-.365c0-.122.028-.244.075-.356a.928.928 0 0 1 1.05-.563c.057.019.112.038.17.056l.168.085c.046.037.093.075.14.122.085.084.15.187.198.3a.932.932 0 0 1 .074.356.943.943 0 0 1-.074.365zm0 5.625a.942.942 0 0 1-.197.3.928.928 0 0 1-.667.272.931.931 0 0 1-.665-.272.942.942 0 0 1-.197-.3.944.944 0 0 1-.075-.365c0-.122.028-.244.075-.356a.942.942 0 0 1 .197-.3.94.94 0 0 1 1.023-.206.788.788 0 0 1 .309.206c.084.084.149.187.197.3a.932.932 0 0 1 .074.356.943.943 0 0 1-.074.365zm0 5.625a.942.942 0 0 1-.197.3.928.928 0 0 1-.667.272.924.924 0 0 1-.937-.937c0-.244.103-.488.272-.656a.958.958 0 0 1 1.022-.207.961.961 0 0 1 .31.207c.169.178.27.412.27.656a.98.98 0 0 1-.073.365zm0 5.625a.942.942 0 0 1-.197.3.932.932 0 0 1-.667.272.924.924 0 0 1-.665-.272.942.942 0 0 1-.197-.3.944.944 0 0 1-.075-.365c0-.122.028-.244.075-.356a.942.942 0 0 1 .197-.3c.047-.047.094-.085.14-.122l.169-.085.17-.056a.961.961 0 0 1 .853.263c.084.084.149.187.197.3a.932.932 0 0 1 .074.356.943.943 0 0 1-.074.365zm-.197 5.925a.926.926 0 0 1-.667.272.935.935 0 0 1-.665-.272.942.942 0 0 1-.197-.3.944.944 0 0 1-.075-.365c0-.244.103-.488.272-.656a.94.94 0 0 1 1.332 0 .945.945 0 0 1 0 1.321zm.197 5.325a.942.942 0 0 1-.197.3.961.961 0 0 1-.667.282.933.933 0 0 1-.356-.075.932.932 0 0 1-.581-.872c0-.244.103-.478.272-.656.047-.047.094-.085.14-.122l.169-.085a.602.602 0 0 1 .17-.056.961.961 0 0 1 .853.262c.084.085.149.188.197.3a.932.932 0 0 1 .074.357.943.943 0 0 1-.074.365zM47.56 8.41a.928.928 0 0 1-.667.272.931.931 0 0 1-.937-.937c0-.122.028-.244.075-.356a.942.942 0 0 1 .197-.3c.347-.357.975-.357 1.332 0 .084.084.149.187.197.3a.932.932 0 0 1-.197 1.021zm0 5.625a.928.928 0 0 1-.667.272.931.931 0 0 1-.937-.937c0-.244.103-.488.272-.656a.96.96 0 0 1 .853-.263c.057.019.112.038.17.056.055.028.111.057.159.085a.942.942 0 0 1 .347.422.932.932 0 0 1-.197 1.021zm.197 5.325a.942.942 0 0 1-.197.3.928.928 0 0 1-.667.272.931.931 0 0 1-.665-.272.942.942 0 0 1-.197-.3.944.944 0 0 1-.075-.365c0-.122.028-.244.075-.356a.942.942 0 0 1 .197-.3.862.862 0 0 1 .309-.207.958.958 0 0 1 1.023.207c.169.168.27.412.27.656a.943.943 0 0 1-.073.365zm-.197 5.925a.928.928 0 0 1-.667.272.931.931 0 0 1-.665-.272.942.942 0 0 1-.197-.3.944.944 0 0 1-.075-.365c0-.122.028-.244.075-.356a.942.942 0 0 1 .197-.3c.357-.357.985-.357 1.332 0 .084.084.149.187.197.3a.932.932 0 0 1-.197 1.021zm.197 5.325a.942.942 0 0 1-.197.3c-.095.085-.198.16-.31.207a.926.926 0 0 1-.357.065.931.931 0 0 1-.937-.937c0-.122.028-.244.075-.356a.942.942 0 0 1 .197-.3c.347-.347.985-.357 1.332 0 .084.084.149.187.197.3a.932.932 0 0 1 .074.356.943.943 0 0 1-.074.365zm-.197 5.925a.926.926 0 0 1-.667.272.931.931 0 0 1-.937-.937c0-.244.103-.488.272-.656.347-.347.985-.357 1.332 0a.945.945 0 0 1 0 1.321zm.197 5.325a.942.942 0 0 1-.197.3.926.926 0 0 1-.667.272.932.932 0 0 1-.862-1.294.942.942 0 0 1 .197-.3.862.862 0 0 1 .309-.206.897.897 0 0 1 .544-.056c.057.019.112.038.17.056l.168.085c.046.037.093.075.14.122.085.084.15.187.198.3a.932.932 0 0 1 .074.356.943.943 0 0 1-.074.365zm0 5.625a.942.942 0 0 1-.197.3.932.932 0 0 1-.667.272.924.924 0 0 1-.937-.937c0-.244.103-.488.272-.656a.862.862 0 0 1 .309-.207.958.958 0 0 1 1.023.207c.169.168.27.412.27.656a.943.943 0 0 1-.073.365zm0 5.625a.942.942 0 0 1-.197.3.961.961 0 0 1-.667.282.933.933 0 0 1-.356-.075.951.951 0 0 1-.31-.207.942.942 0 0 1-.196-.3.944.944 0 0 1-.075-.365c0-.122.028-.244.075-.356a.924.924 0 0 1 1.22-.506l.168.084a.962.962 0 0 1 .412.778.943.943 0 0 1-.074.365zm-5.822-44.7a.928.928 0 0 1-.667.272.931.931 0 0 1-.937-.937c0-.244.103-.478.272-.656a.788.788 0 0 1 .309-.207.94.94 0 0 1 .713 0 .788.788 0 0 1 .31.207c.169.178.27.412.27.656a.93.93 0 0 1-.27.665zm0 5.625a.928.928 0 0 1-.667.272.931.931 0 0 1-.937-.937c0-.244.103-.488.272-.656.357-.347.975-.357 1.332 0 .084.084.149.187.197.3a.932.932 0 0 1-.197 1.021zm.206 5.325a1.16 1.16 0 0 1-.206.3.928.928 0 0 1-.667.272.931.931 0 0 1-.665-.272.942.942 0 0 1-.197-.3.944.944 0 0 1-.075-.365c0-.122.028-.244.075-.356a.942.942 0 0 1 .197-.3.958.958 0 0 1 1.022-.207.961.961 0 0 1 .31.207c.169.168.27.412.27.656a.939.939 0 0 1-.064.365zm-.206 5.925a.928.928 0 0 1-.667.272.931.931 0 0 1-.937-.937c0-.122.028-.244.075-.356a.942.942 0 0 1 .197-.3.94.94 0 0 1 1.332 0c.084.084.149.187.197.3a.932.932 0 0 1-.197 1.021zm0 5.625c-.095.085-.198.16-.31.207a.926.926 0 0 1-.357.065.924.924 0 0 1-.356-.065 1.13 1.13 0 0 1-.31-.207.932.932 0 0 1-.196-1.021.942.942 0 0 1 .197-.3c.347-.347.985-.357 1.332 0 .084.084.149.187.197.3a.932.932 0 0 1-.197 1.021zm0 5.625a.926.926 0 0 1-.667.272.931.931 0 0 1-.665-.272.942.942 0 0 1-.197-.3.839.839 0 0 1-.075-.365c0-.244.103-.478.272-.656a.862.862 0 0 1 .309-.207.958.958 0 0 1 1.023.207.945.945 0 0 1 0 1.321zm.197 5.325a.942.942 0 0 1-.197.3.932.932 0 0 1-.667.272.935.935 0 0 1-.665-.272.942.942 0 0 1-.197-.3.839.839 0 0 1-.075-.365c0-.122.028-.244.075-.356a.942.942 0 0 1 .197-.3.94.94 0 0 1 1.332 0c.084.084.149.187.197.3a.932.932 0 0 1 .074.356.98.98 0 0 1-.074.365zm-.197 5.925a.926.926 0 0 1-.667.272.924.924 0 0 1-.665-.272.942.942 0 0 1-.197-.3.944.944 0 0 1-.075-.365c0-.244.103-.488.272-.656a.958.958 0 0 1 1.022-.207.961.961 0 0 1 .31.207.945.945 0 0 1 0 1.321zm.197 5.325a.942.942 0 0 1-.197.3.961.961 0 0 1-.667.282.933.933 0 0 1-.356-.075.932.932 0 0 1-.581-.872c0-.244.103-.478.272-.656.047-.047.094-.085.14-.122l.169-.085a.602.602 0 0 1 .17-.056.96.96 0 0 1 .853.263c.084.084.149.187.197.3a.932.932 0 0 1 .074.356.943.943 0 0 1-.074.365zM36.31 8.41a.944.944 0 0 1-.667.272.931.931 0 0 1-.937-.937c0-.244.103-.488.272-.656.347-.357.985-.357 1.332 0a.945.945 0 0 1 0 1.321zm0 5.625a.928.928 0 0 1-.667.272.931.931 0 0 1-.937-.937c0-.122.028-.244.075-.356a.942.942 0 0 1 .197-.3.983.983 0 0 1 1.332 0c.084.084.149.187.197.3a.932.932 0 0 1-.197 1.021zm.197 5.325a.942.942 0 0 1-.197.3.928.928 0 0 1-.667.272.931.931 0 0 1-.665-.272.942.942 0 0 1-.197-.3.812.812 0 0 1-.075-.365c0-.244.103-.488.272-.656.347-.347.975-.357 1.332 0 .084.084.149.187.197.3a.932.932 0 0 1 .074.356.943.943 0 0 1-.074.365zm0 22.5a.942.942 0 0 1-.197.3.926.926 0 0 1-.667.272.924.924 0 0 1-.665-.272.942.942 0 0 1-.197-.3.944.944 0 0 1-.075-.365c0-.122.028-.244.075-.356a.942.942 0 0 1 .197-.3c.047-.047.094-.085.14-.122l.169-.085.17-.056a1.25 1.25 0 0 1 .374 0c.057.019.112.038.17.056.055.028.111.057.159.085a.942.942 0 0 1 .347.422.932.932 0 0 1 .074.356.943.943 0 0 1-.074.365zm0 5.625a.942.942 0 0 1-.197.3.926.926 0 0 1-.667.272.932.932 0 0 1-.938-.938c0-.243.104-.487.273-.655a.94.94 0 0 1 1.332 0c.169.168.27.412.27.656a.943.943 0 0 1-.073.365zm0 5.625a.942.942 0 0 1-.197.3.961.961 0 0 1-.667.282.944.944 0 0 1-.937-.947c0-.122.028-.244.075-.356a.942.942 0 0 1 .197-.3.862.862 0 0 1 .309-.207.962.962 0 0 1 1.023.207c.169.168.27.412.27.656a.943.943 0 0 1-.073.365zM25.313 35.88a.94.94 0 0 1-.938-.938v-9.375c0-.525.422-.938.938-.938h9.375c.515 0 .937.413.937.938v9.375a.94.94 0 0 1-.937.937h-9.375zm5.568 5.98a.924.924 0 0 1-.196.3.923.923 0 0 1-.666.272.92.92 0 0 1-.665-.272.897.897 0 0 1-.197-.3.916.916 0 0 1 0-.722.933.933 0 0 1 1.05-.563c.055.02.111.039.168.057l.17.085c.045.037.093.075.14.122.083.084.15.187.196.3a.916.916 0 0 1 .075.356.962.962 0 0 1-.075.365zm-.196 5.925a.923.923 0 0 1-.666.272.92.92 0 0 1-.937-.937c0-.244.102-.488.272-.656.346-.357.983-.357 1.33 0a.945.945 0 0 1 0 1.321zm0 5.625a.945.945 0 0 1-.31.207.932.932 0 0 1-.356.075.93.93 0 0 1-.356-.075.942.942 0 0 1-.31-.207.897.897 0 0 1-.196-.3.916.916 0 0 1 0-.722.897.897 0 0 1 .197-.3c.046-.046.093-.084.14-.121l.169-.085a.59.59 0 0 1 .168-.056.945.945 0 0 1 .854 1.584zm-5.43-11.55a.924.924 0 0 1-.195.3.932.932 0 0 1-.666.272.92.92 0 0 1-.665-.272.962.962 0 0 1-.272-.666c0-.121.027-.243.075-.355a.897.897 0 0 1 .197-.3.942.942 0 0 1 1.33 0c.084.084.15.187.197.3a.917.917 0 0 1 .076.356.963.963 0 0 1-.076.365zm-.195 5.925a.932.932 0 0 1-.666.272.932.932 0 0 1-.665-.272.897.897 0 0 1-.197-.3.927.927 0 0 1 .197-1.021.935.935 0 0 1 1.331 0 .946.946 0 0 1 .272.656.932.932 0 0 1-.272.665zm.196 5.325a.924.924 0 0 1-.196.3.945.945 0 0 1-.31.207.932.932 0 0 1-.356.075.93.93 0 0 1-.356-.075.942.942 0 0 1-.31-.207.897.897 0 0 1-.196-.3.916.916 0 0 1 0-.722.897.897 0 0 1 .197-.3.846.846 0 0 1 .309-.206.926.926 0 0 1 1.218.507.917.917 0 0 1 .076.356.927.927 0 0 1-.076.365zm-5.821-44.7a.928.928 0 0 1-.666.272.928.928 0 0 1-.862-1.293.897.897 0 0 1 .197-.3c.346-.357.983-.357 1.33 0a.946.946 0 0 1 .273.656.932.932 0 0 1-.272.665zm0 5.625a.928.928 0 0 1-.666.272.928.928 0 0 1-.862-1.293.897.897 0 0 1 .197-.3.984.984 0 0 1 .852-.263l.169.056.17.085c.045.037.093.075.14.122.083.084.15.187.196.3a.932.932 0 0 1-.196 1.022zm.196 5.325a.924.924 0 0 1-.196.3 1.12 1.12 0 0 1-.31.207.923.923 0 0 1-.356.065.928.928 0 0 1-.665-.272.897.897 0 0 1-.197-.3.916.916 0 0 1 0-.722.897.897 0 0 1 .197-.3c.355-.356.983-.346 1.33 0a.927.927 0 0 1 .196 1.022zm-.196 5.925a.928.928 0 0 1-.666.272.928.928 0 0 1-.862-1.293.897.897 0 0 1 .197-.3.955.955 0 0 1 1.02-.207.945.945 0 0 1 .31.207c.084.084.15.187.197.3a.932.932 0 0 1-.196 1.022zm0 5.625a.928.928 0 0 1-.666.272.92.92 0 0 1-.356-.065 1.115 1.115 0 0 1-.31-.207.928.928 0 0 1-.196-1.021.897.897 0 0 1 .197-.3c.346-.357.983-.347 1.33 0 .084.084.15.187.197.3a.932.932 0 0 1-.196 1.022zm0 5.625a.923.923 0 0 1-.666.272.92.92 0 0 1-.937-.937c0-.244.102-.478.272-.656a.955.955 0 0 1 1.02-.207.945.945 0 0 1 .31.207.963.963 0 0 1 .273.656.932.932 0 0 1-.272.665zm0 5.625a.923.923 0 0 1-.666.272.92.92 0 0 1-.937-.937c0-.122.027-.244.075-.356a.897.897 0 0 1 .197-.3c.046-.047.093-.085.14-.122l.169-.085.168-.056c.123-.019.253-.019.375 0l.169.056a.954.954 0 0 1 .31.206c.083.085.15.188.196.3a.932.932 0 0 1-.196 1.022zm.196 5.325a.924.924 0 0 1-.196.3.923.923 0 0 1-.666.272.92.92 0 0 1-.937-.937.942.942 0 0 1 .581-.863.957.957 0 0 1 1.022.207.927.927 0 0 1 .196 1.022zm-.196 5.925a.945.945 0 0 1-.31.207.932.932 0 0 1-.356.075.93.93 0 0 1-.356-.075.942.942 0 0 1-.31-.207.897.897 0 0 1-.196-.3.916.916 0 0 1 0-.722.897.897 0 0 1 .197-.3c.046-.046.093-.084.14-.121l.169-.085a.59.59 0 0 1 .168-.056.896.896 0 0 1 .544.056.945.945 0 0 1 .31.207.963.963 0 0 1 .272.656.932.932 0 0 1-.272.665zM13.81 14.034a.928.928 0 0 1-.666.272.928.928 0 0 1-.862-1.293.897.897 0 0 1 .197-.3.982.982 0 0 1 1.33 0c.084.084.15.187.197.3a.932.932 0 0 1-.196 1.022zm.196 5.325a.924.924 0 0 1-.196.3.928.928 0 0 1-.666.272.928.928 0 0 1-.665-.272.897.897 0 0 1-.197-.3.916.916 0 0 1 0-.722.897.897 0 0 1 .197-.3.846.846 0 0 1 .309-.206.957.957 0 0 1 1.022.207.946.946 0 0 1 .272.656.788.788 0 0 1-.076.365zm-.196 5.925a.928.928 0 0 1-.666.272.928.928 0 0 1-.862-1.293.897.897 0 0 1 .197-.3.846.846 0 0 1 .309-.207.957.957 0 0 1 1.022.207c.083.084.15.187.196.3a.932.932 0 0 1-.196 1.022zm.196 5.325a.924.924 0 0 1-.196.3.928.928 0 0 1-.666.272.928.928 0 0 1-.665-.272.897.897 0 0 1-.197-.3.916.916 0 0 1 0-.722.897.897 0 0 1 .197-.3.769.769 0 0 1 .309-.206.935.935 0 0 1 1.218.507.917.917 0 0 1 .076.356.927.927 0 0 1-.076.365zm0 5.625a.924.924 0 0 1-.196.3.928.928 0 0 1-.666.272.92.92 0 0 1-.937-.937c0-.244.102-.488.272-.656a.955.955 0 0 1 1.02-.207.866.866 0 0 1 .31.207.963.963 0 0 1 .273.656.963.963 0 0 1-.076.365zm0 5.625a.924.924 0 0 1-.196.3.923.923 0 0 1-.666.272.932.932 0 0 1-.665-.272.962.962 0 0 1-.272-.666c0-.121.027-.243.075-.355a.897.897 0 0 1 .197-.3.935.935 0 0 1 1.527.3.917.917 0 0 1 .076.356.963.963 0 0 1-.076.365zm-.196 5.925a.923.923 0 0 1-.666.272.932.932 0 0 1-.665-.272.897.897 0 0 1-.197-.3.927.927 0 0 1 .197-1.021.955.955 0 0 1 1.02-.207.866.866 0 0 1 .31.207.946.946 0 0 1 .273.656.932.932 0 0 1-.272.665zm.196 5.325a.924.924 0 0 1-.196.3.945.945 0 0 1-.31.207.932.932 0 0 1-.356.075.94.94 0 0 1-.665-1.603.963.963 0 0 1 1.33 0c.084.084.15.187.197.3a.917.917 0 0 1 .076.356.927.927 0 0 1-.076.365zm9.723-34.771a.846.846 0 0 1 .309-.207.957.957 0 0 1 1.022.207.927.927 0 0 1 .196 1.022.924.924 0 0 1-.196.3.928.928 0 0 1-.666.271.928.928 0 0 1-.665-.272.897.897 0 0 1-.197-.3.927.927 0 0 1 .197-1.021zm-.197-5.325a.897.897 0 0 1 .197-.3c.046-.047.093-.085.14-.122l.169-.085.168-.056c.31-.056.629.047.854.263a.946.946 0 0 1 .272.656.932.932 0 0 1-.938.937.928.928 0 0 1-.937-.937c0-.122.018-.244.075-.356zm0-5.625a.897.897 0 0 1 .197-.3c.346-.357.983-.357 1.33 0 .084.084.15.187.197.3a.932.932 0 0 1-.862 1.294.928.928 0 0 1-.862-1.294zm5.822 10.95c.346-.347.975-.357 1.33 0a.927.927 0 0 1 .196 1.022.924.924 0 0 1-.195.3.928.928 0 0 1-.666.271.928.928 0 0 1-.665-.272.897.897 0 0 1-.197-.3.8.8 0 0 1-.075-.365c0-.244.102-.478.272-.656zm-.197-5.325a.897.897 0 0 1 .346-.422c.047-.028.104-.057.16-.085l.168-.056c.31-.066.629.047.854.263a.945.945 0 0 1 0 1.321.928.928 0 0 1-.666.272.928.928 0 0 1-.862-1.293zm.197-5.925a.769.769 0 0 1 .309-.207.935.935 0 0 1 .712 0 .785.785 0 0 1 .31.207c.169.178.27.412.27.656a.93.93 0 0 1-.27.665.945.945 0 0 1-.666.272.928.928 0 0 1-.937-.937c0-.244.102-.478.272-.656zM8.38 19.359a.924.924 0 0 1-.196.3.928.928 0 0 1-.666.272.928.928 0 0 1-.665-.272.897.897 0 0 1-.197-.3.916.916 0 0 1 0-.722.897.897 0 0 1 .197-.3.955.955 0 0 1 1.02-.206.945.945 0 0 1 .31.207c.084.084.15.187.197.3a.917.917 0 0 1 .076.356.927.927 0 0 1-.076.365zm0 5.625a.924.924 0 0 1-.196.3.928.928 0 0 1-.666.272.92.92 0 0 1-.356-.065 1.115 1.115 0 0 1-.31-.207.928.928 0 0 1-.196-1.021.897.897 0 0 1 .197-.3c.346-.357.975-.357 1.33 0 .084.084.15.187.197.3a.917.917 0 0 1 .076.356.927.927 0 0 1-.076.365zm0 5.625a.924.924 0 0 1-.196.3.928.928 0 0 1-.666.272.928.928 0 0 1-.862-1.293.897.897 0 0 1 .197-.3.935.935 0 0 1 1.02-.206.785.785 0 0 1 .31.206c.084.084.15.187.197.3a.917.917 0 0 1 .076.356.788.788 0 0 1-.076.365zm-.196 5.925a.923.923 0 0 1-.666.272.928.928 0 0 1-.665-.272.897.897 0 0 1-.197-.3.826.826 0 0 1-.075-.365c0-.244.102-.478.272-.656a.846.846 0 0 1 .309-.207.957.957 0 0 1 1.022.207.946.946 0 0 1 .272.656.968.968 0 0 1-.272.665zm.196 5.325a.924.924 0 0 1-.196.3.932.932 0 0 1-.666.272.92.92 0 0 1-.665-.272.962.962 0 0 1-.272-.666c0-.121.027-.243.075-.355a.897.897 0 0 1 .197-.3c.046-.047.093-.085.14-.122l.169-.085.168-.056a.896.896 0 0 1 .544.056.866.866 0 0 1 .31.207c.083.084.15.187.196.3a.917.917 0 0 1 .076.356.814.814 0 0 1-.076.365zm0 5.625a.924.924 0 0 1-.196.3.932.932 0 0 1-.666.272.92.92 0 0 1-.937-.937.942.942 0 0 1 .581-.863.935.935 0 0 1 1.022.207.927.927 0 0 1 .196 1.022zm-.196 5.925a.945.945 0 0 1-.31.207.932.932 0 0 1-.356.075.93.93 0 0 1-.356-.075.942.942 0 0 1-.31-.207.897.897 0 0 1-.196-.3.916.916 0 0 1 0-.722.933.933 0 0 1 1.05-.563c.055.01.111.03.168.057l.17.085c.045.037.093.075.14.122a.963.963 0 0 1 .272.656.932.932 0 0 1-.272.665zM59.063 0H9.366A.937.937 0 0 0 8.7.281L.272 8.71A.942.942 0 0 0 0 9.366v49.697c0 .525.422.937.938.937h58.125a.935.935 0 0 0 .937-.937V.938A.94.94 0 0 0 59.063 0z" mask="url(#b)"/>
    </g>
</svg>
